<svg width="44" height="44" viewBox="0 0 44 44" fill="none" xmlns="http://www.w3.org/2000/svg">
<g clip-path="url(#clip0_126_1112)">
<mask id="path-1-inside-1_126_1112" fill="white">
<path fill-rule="evenodd" clip-rule="evenodd" d="M13.0963 33.066C5.38173 35.0082 0 39.397 0 44.5C0 51.4035 9.84974 57 22 57C34.1503 57 44 51.4035 44 44.5C44 39.2282 38.2563 34.7186 30.1305 32.8813C27.7907 34.8287 24.7821 36 21.5 36C18.323 36 15.4022 34.9025 13.0963 33.066Z"/>
</mask>
<path d="M13.0963 33.066L15.5882 29.9371L14.0395 28.7037L12.1197 29.1871L13.0963 33.066ZM30.1305 32.8813L31.0127 28.9798L29.0883 28.5447L27.5718 29.8068L30.1305 32.8813ZM4 44.5C4 43.4619 4.5339 42.1114 6.25687 40.636C7.98337 39.1576 10.6505 37.8066 14.0728 36.945L12.1197 29.1871C7.82752 30.2677 3.9465 32.0821 1.05349 34.5594C-1.84304 37.0397 -4 40.4351 -4 44.5H4ZM22 53C16.4883 53 11.6952 51.7221 8.41969 49.861C5.02663 47.9331 4 45.8853 4 44.5H-4C-4 50.0182 -0.101761 54.2204 4.46761 56.8166C9.15449 59.4796 15.3615 61 22 61V53ZM40 44.5C40 45.8853 38.9734 47.9331 35.5803 49.861C32.3048 51.7221 27.5117 53 22 53V61C28.6385 61 34.8455 59.4796 39.5324 56.8166C44.1018 54.2204 48 50.0182 48 44.5H40ZM29.2484 36.7829C32.8671 37.6011 35.7173 38.9673 37.5718 40.4923C39.4291 42.0195 40 43.4301 40 44.5H48C48 40.2981 45.6991 36.818 42.653 34.3132C39.6043 31.8061 35.5198 29.9989 31.0127 28.9798L29.2484 36.7829ZM27.5718 29.8068C25.9238 31.1784 23.8131 32 21.5 32V40C25.7512 40 29.6576 38.479 32.6893 35.9559L27.5718 29.8068ZM21.5 32C19.2603 32 17.2115 31.2299 15.5882 29.9371L10.6043 36.195C13.5929 38.5751 17.3856 40 21.5 40V32Z" fill="black" mask="url(#path-1-inside-1_126_1112)"/>
<circle cx="21.5" cy="20.5" r="11.5" stroke="black" stroke-width="4"/>
</g>
<defs>
<clipPath id="clip0_126_1112">
<rect width="44" height="44" fill="white"/>
</clipPath>
</defs>
</svg>
