<svg width="44" height="35" viewBox="0 0 44 35" fill="none" xmlns="http://www.w3.org/2000/svg">
<path fill-rule="evenodd" clip-rule="evenodd" d="M0.301025 3.98015L4.30174 4.38022L5.19859 5.87498L15.8334 26.4901H40.2084L44 5.49007H9.63241L6.69833 0.599928L0.69904 0L0.301025 3.98015ZM11.5644 9.49007L18.2708 22.4901H36.8659L39.2131 9.49007H11.5644Z" fill="black"/>
<path fill-rule="evenodd" clip-rule="evenodd" d="M25.5 30.9901C25.5 33.1992 23.7092 34.9901 21.5 34.9901C19.2909 34.9901 17.5 33.1992 17.5 30.9901C17.5 28.7809 19.2909 26.9901 21.5 26.9901C23.7092 26.9901 25.5 28.7809 25.5 30.9901ZM19.5 30.9901C19.5 29.8855 20.3955 28.9901 21.5 28.9901C22.6046 28.9901 23.5 29.8855 23.5 30.9901C23.5 32.0946 22.6046 32.9901 21.5 32.9901C20.3955 32.9901 19.5 32.0946 19.5 30.9901Z" fill="black"/>
<path fill-rule="evenodd" clip-rule="evenodd" d="M37.5 30.9901C37.5 33.1992 35.7092 34.9901 33.5 34.9901C31.2909 34.9901 29.5 33.1992 29.5 30.9901C29.5 28.7809 31.2909 26.9901 33.5 26.9901C35.7092 26.9901 37.5 28.7809 37.5 30.9901ZM31.5 30.9901C31.5 29.8855 32.3955 28.9901 33.5 28.9901C34.6046 28.9901 35.5 29.8855 35.5 30.9901C35.5 32.0946 34.6046 32.9901 33.5 32.9901C32.3955 32.9901 31.5 32.0946 31.5 30.9901Z" fill="black"/>
</svg>
