<svg width="44" height="44" viewBox="0 0 44 44" fill="none" xmlns="http://www.w3.org/2000/svg">
<rect x="6" y="11" width="32" height="31" rx="2" stroke="black" stroke-width="4"/>
<path d="M17 6C17 5.44772 17.4477 5 18 5H26C26.5523 5 27 5.44772 27 6V10C27 10.5523 26.5523 11 26 11H18C17.4477 11 17 10.5523 17 10V6Z" stroke="black" stroke-width="4"/>
<path d="M16 27H28" stroke="black" stroke-width="2"/>
<line x1="29" y1="21" x2="29" y2="33" stroke="black" stroke-width="2"/>
<line x1="15" y1="21" x2="15" y2="33" stroke="black" stroke-width="2"/>
<line x1="31" y1="23" x2="31" y2="31" stroke="black" stroke-width="2"/>
<line x1="33" y1="25" x2="33" y2="29" stroke="black" stroke-width="2"/>
<line x1="11" y1="25" x2="11" y2="29" stroke="black" stroke-width="2"/>
<line x1="13" y1="23" x2="13" y2="31" stroke="black" stroke-width="2"/>
<line x1="13" y1="5" x2="31" y2="5" stroke="black" stroke-width="4" stroke-linecap="round"/>
</svg>
