<svg width="44" height="44" viewBox="0 0 44 44" fill="none" xmlns="http://www.w3.org/2000/svg">
<mask id="path-1-inside-1_136_831" fill="white">
<path fill-rule="evenodd" clip-rule="evenodd" d="M10.9999 22.4735L6.43398 24.6026L0.124268 11.0714L10.9999 6L11 6L16.9999 6C16.9999 6 18.9999 8.62069 21.4999 8.62069C23.9999 8.62069 26.9999 6 26.9999 6L32.8674 6L32.9999 6V6.0618L43.7431 11.0714L37.4334 24.6026L32.9999 22.5353V44H10.9999V22.4735Z"/>
</mask>
<path fill-rule="evenodd" clip-rule="evenodd" d="M10.9999 22.4735L6.43398 24.6026L0.124268 11.0714L10.9999 6L11 6L16.9999 6C16.9999 6 18.9999 8.62069 21.4999 8.62069C23.9999 8.62069 26.9999 6 26.9999 6L32.8674 6L32.9999 6V6.0618L43.7431 11.0714L37.4334 24.6026L32.9999 22.5353V44H10.9999V22.4735Z" fill="white"/>
<path d="M6.43398 24.6026L2.80875 26.2931L4.49922 29.9183L8.12445 28.2279L6.43398 24.6026ZM10.9999 22.4735H14.9999V16.1948L9.30946 18.8483L10.9999 22.4735ZM0.124268 11.0714L-1.56621 7.44619L-5.19144 9.13666L-3.50096 12.7619L0.124268 11.0714ZM10.9999 6L10.5114 2.02995L9.88316 2.10725L9.30945 2.37477L10.9999 6ZM11 6L11 2H10.7548L10.5115 2.02994L11 6ZM16.9999 6L20.1797 3.57331L18.9791 2.00001L16.9999 2L16.9999 6ZM26.9999 6L26.9999 2L25.4988 2L24.3684 2.98755L26.9999 6ZM32.8674 6L32.8675 2H32.8674L32.8674 6ZM32.9999 6H36.9999V2.00012L33 2L32.9999 6ZM32.9999 6.0618H28.9999V8.61008L31.3095 9.68703L32.9999 6.0618ZM43.7431 11.0714L47.3683 12.7619L49.0588 9.13666L45.4336 7.44619L43.7431 11.0714ZM37.4334 24.6026L35.7429 28.2279L39.3681 29.9183L41.0586 26.2931L37.4334 24.6026ZM32.9999 22.5353L34.6904 18.9101L28.9999 16.2565V22.5353H32.9999ZM32.9999 44V48H36.9999V44H32.9999ZM10.9999 44H6.99993V48H10.9999V44ZM8.12445 28.2279L12.6904 26.0987L9.30946 18.8483L4.74351 20.9774L8.12445 28.2279ZM-3.50096 12.7619L2.80875 26.2931L10.0592 22.9122L3.7495 9.38095L-3.50096 12.7619ZM9.30945 2.37477L-1.56621 7.44619L1.81474 14.6966L12.6904 9.62523L9.30945 2.37477ZM11.4884 9.97006L11.4885 9.97006L10.5115 2.02994L10.5114 2.02995L11.4884 9.97006ZM11 10L16.9999 10L16.9999 2L11 2L11 10ZM16.9999 6C13.8201 8.4267 13.8208 8.42764 13.8216 8.4286C13.8218 8.42893 13.8226 8.4299 13.8231 8.43057C13.8241 8.4319 13.8252 8.43328 13.8262 8.4347C13.8284 8.43754 13.8307 8.44055 13.8332 8.44373C13.8381 8.45008 13.8435 8.45711 13.8495 8.46479C13.8615 8.48015 13.8756 8.49813 13.8918 8.51857C13.9243 8.55942 13.9654 8.61026 14.0148 8.66965C14.1132 8.78809 14.2463 8.94258 14.4109 9.12113C14.7357 9.47334 15.2069 9.94463 15.8016 10.4241C16.8882 11.3003 18.8998 12.6207 21.4999 12.6207V4.62069C21.6 4.62069 21.3617 4.6307 20.8233 4.19657C20.6054 4.0209 20.4204 3.83701 20.2921 3.69784C20.2302 3.63071 20.1874 3.58045 20.1667 3.55557C20.1565 3.54331 20.1522 3.53784 20.1542 3.5403C20.1552 3.54154 20.1577 3.54481 20.162 3.55025C20.1641 3.55297 20.1666 3.55624 20.1696 3.56008C20.1711 3.562 20.1727 3.56406 20.1743 3.56626C20.1752 3.56736 20.1761 3.5685 20.177 3.56968C20.1774 3.57026 20.1781 3.57117 20.1783 3.57147C20.179 3.57238 20.1797 3.57331 16.9999 6ZM21.4999 12.6207C23.9256 12.6207 26.11 11.4408 27.2869 10.7151C27.9614 10.2992 28.528 9.88909 28.9266 9.58335C29.1279 9.42891 29.2917 9.29702 29.4107 9.19888C29.4704 9.14971 29.5191 9.10872 29.5561 9.07726C29.5747 9.06153 29.5903 9.04815 29.6028 9.0373C29.6091 9.03187 29.6147 9.02708 29.6195 9.02293C29.6219 9.02086 29.6241 9.01894 29.6261 9.0172C29.6271 9.01632 29.628 9.01549 29.6289 9.0147C29.6294 9.01431 29.63 9.01374 29.6302 9.01355C29.6309 9.013 29.6315 9.01245 26.9999 6C24.3684 2.98755 24.369 2.98703 24.3695 2.98652C24.3697 2.98636 24.3703 2.98586 24.3707 2.98555C24.3714 2.98491 24.3721 2.98432 24.3727 2.98376C24.374 2.98265 24.3751 2.98169 24.376 2.98088C24.3779 2.97925 24.3791 2.97821 24.3796 2.97774C24.3807 2.97681 24.3792 2.97815 24.3751 2.98161C24.367 2.98854 24.3488 3.00385 24.3216 3.02634C24.2668 3.07153 24.1766 3.14437 24.0577 3.23562C23.8156 3.42126 23.476 3.66635 23.088 3.90561C22.692 4.14977 22.3056 4.35067 21.9663 4.48239C21.6059 4.62231 21.4608 4.62069 21.4999 4.62069V12.6207ZM26.9999 10L32.8674 10L32.8674 2L26.9999 2L26.9999 10ZM32.8673 10L32.9998 10L33 2L32.8675 2L32.8673 10ZM28.9999 6V6.0618H36.9999V6H28.9999ZM45.4336 7.44619L34.6904 2.43657L31.3095 9.68703L42.0526 14.6967L45.4336 7.44619ZM41.0586 26.2931L47.3683 12.7619L40.1179 9.38095L33.8081 22.9122L41.0586 26.2931ZM31.3095 26.1605L35.7429 28.2279L39.1238 20.9774L34.6904 18.9101L31.3095 26.1605ZM28.9999 22.5353V44H36.9999V22.5353H28.9999ZM32.9999 40H10.9999V48H32.9999V40ZM14.9999 44V22.4735H6.99993V44H14.9999Z" fill="black" mask="url(#path-1-inside-1_136_831)"/>
</svg>
